<svg xmlns="http://www.w3.org/2000/svg" viewBox="0 0 363.43 132.84"><defs><style>.a{fill:#f58a2a;}.b{fill:#f9a8d4;}.c,.d{fill:#fb7185;}.d,.e{font-size:60px;font-family:Bauhaus93, "Bauhaus 93";}.e{fill:#f9f9f9;}</style></defs><polygon class="a" points="125.61 77.16 125.61 77.16 125.61 77.16 125.61 77.16"/><path class="b" d="M158.37,105.51l-.13-.11-5.49-4.16h0A99.63,99.63,0,0,0,130.78,94h0c-1.08-5.09-3.64-10.85-6.29-15.89-.1-.33-.21-.66-.3-1l-.4-.31c-.18-.35-.37-.7-.55-1a3.29,3.29,0,0,0-.85-1.52c-.46-.79-.9-1.55-1.33-2.27v0l0,0c-2.26-3.79-4.08-6.45-4.37-6.87h0l0,0C111,45.92,116,35.15,116,35.15A33.76,33.76,0,0,0,104.52,50l0,0a35.5,35.5,0,0,0-3.22,15.51,36.49,36.49,0,0,0,.09,4.64c-3.08-1.64-3.53-3.54-3.4-14.08h0q.39-3,.79-6a86.34,86.34,0,0,0,2-10.7c0-.13,0-.25.06-.38,3-22.32-10.9-33.64-17-37.48A10.17,10.17,0,0,0,81.06,0L81,0l1.26,6.88q.48,3.53.61,6.74c0,.83.06,1.68.06,2.49A59.42,59.42,0,0,1,70,52.53a.69.69,0,0,0-.59.73,38,38,0,0,1-3.06,3.32c-.31-2.58-.59-4.93-.87-7.28l-.09-.76C62.65,40.81,57.76,35.11,50,32c0,0,9.5,13.67-1.84,29.31l-.58.81a31.92,31.92,0,0,0-6.84,28.63v0S3.68,94.91.26,108.86L.17,109l0,0c0,.14,0,.27-.06.41,0,.31-.1.63-.13.93,0,.13,0,.25,0,.38s0,.51,0,.78a4.18,4.18,0,0,0,.2,1.14C.92,115,4.31,120.9,20,126c.78.22,1.56.45,2.33.72,1.74.52,3.6,1,5.62,1.51q2.5.62,5.32,1.18c1.67.34,3.39.67,5.23,1,3.52.61,7.42,1.16,11.62,1.66l4.71.53,2.93.29s-.87-.28-2.29-.79c-2-.71-5.14-1.88-8.71-3.38-12.19-5.13-29.27-14.16-22.39-22.25A32.86,32.86,0,0,1,43.82,99.2c2.37,6.74,5.7,9.74,5.7,9.74h0a48.33,48.33,0,0,0,8.67,9.23c9.14,7.79,20.06,11.37,31.75,13.21,9.39,1.48,18.72.65,28.07,0,0,0,50.39-5.91,42.18-23A11,11,0,0,0,158.37,105.51Z"/><path class="c" d="M141.46,103.75c-3.69-2.62-7.93-4.09-12.22-5.41-7.07,9.81-23,19.72-28.8,18,7.59-6.85,8.59-11.39,4.85-21.23-1-2.66-2.5-5.2-2.54-8.18,0-.75,0-1.51-.07-2.26l.18-3c-.4-.95.81-1.88,0-3-5,1.74-6.32,6-7.27,11C91.74,85.37,89.06,81,88,76.11L88,76a6.18,6.18,0,0,1-.12-.67c-.48-4.19,1.86-13.24,1.9-13.43l-.23.12-.48.3A17.62,17.62,0,0,0,80.3,74.11h0a17.5,17.5,0,0,0-.41,2.16A38.7,38.7,0,0,0,80,84.8a12.79,12.79,0,0,1-.17,10.64,52.59,52.59,0,0,0-1.19-7,8.37,8.37,0,0,0-2.18-4.09c-.51-.6-1.22-1.51-2.07-1-.42.25-.35,1.32-.5,2a15.79,15.79,0,0,1-2.7,10.33,28,28,0,0,0-3.4,6.24c-.86,7.67,3.37,12.18,9.74,15,16.3,7.31,33.17,7.8,50.3,3.57,4.73-1.16,9.49-2.44,13.55-5.32C146.42,111.69,146.42,107.26,141.46,103.75Z"/><text class="d" transform="translate(212.9 106.11)">Poll</text><text class="e" transform="translate(115.08 107.53)">Fire</text></svg>